<svg width="19" height="16" viewBox="0 0 19 16" fill="none" xmlns="http://www.w3.org/2000/svg">
<path fill-rule="evenodd" clip-rule="evenodd" d="M16.5776 0.797335C16.7242 0.943782 16.7242 1.18121 16.5776 1.32766L2.70266 15.2026C2.55622 15.3492 2.31878 15.3492 2.17234 15.2026C2.02589 15.0562 2.02589 14.8188 2.17234 14.6724L16.0474 0.797335C16.1938 0.650888 16.4312 0.650888 16.5776 0.797335ZM1.13206 7.99997C1.133 7.99758 1.13403 7.99502 1.13516 7.99228C1.15096 7.9541 1.17887 7.89921 1.22274 7.82786C1.31019 7.68566 1.44708 7.50068 1.63471 7.28654C2.00907 6.85928 2.56801 6.33577 3.29128 5.82807C4.73769 4.81278 6.8202 3.875 9.375 3.875C10.3479 3.875 11.2517 4.01089 12.0778 4.23507C12.2777 4.28932 12.4837 4.17125 12.5379 3.97137C12.5921 3.7715 12.4741 3.56549 12.2742 3.51125C11.3882 3.27082 10.4183 3.125 9.375 3.125C6.63202 3.125 4.40202 4.13207 2.86039 5.21421C2.08963 5.75523 1.48565 6.31858 1.07061 6.79228C0.863526 7.02863 0.699084 7.24765 0.583883 7.43498C0.526435 7.5284 0.47768 7.61965 0.442158 7.7055C0.409656 7.78404 0.375 7.88884 0.375 8C0.375 8.13914 0.4299 8.27528 0.478958 8.37594C0.534247 8.48947 0.611318 8.61518 0.704951 8.74784C0.892854 9.01409 1.16397 9.33172 1.50932 9.66969C2.20059 10.3462 3.20734 11.1216 4.4824 11.7404C4.66872 11.8308 4.89307 11.7531 4.9835 11.5668C5.07393 11.3804 4.99619 11.1561 4.80987 11.0657C3.61433 10.4854 2.673 9.75912 2.03387 9.13362C1.714 8.82069 1.47432 8.53728 1.31773 8.31541C1.23912 8.20402 1.18552 8.11384 1.1532 8.04749C1.14321 8.027 1.13651 8.01129 1.13206 7.99997ZM13.7665 4.43322C13.8569 4.2469 14.0813 4.16917 14.2676 4.25959C15.5426 4.87841 16.5494 5.65384 17.2407 6.3303C17.586 6.66824 17.8571 6.98588 18.0451 7.25214C18.1387 7.38483 18.2157 7.51054 18.271 7.62402C18.3201 7.72472 18.375 7.86085 18.375 8C18.375 8.11116 18.3403 8.21596 18.3079 8.29449C18.2723 8.38034 18.2236 8.47156 18.1661 8.56503C18.0509 8.75234 17.8865 8.97134 17.6794 9.20769C17.2643 9.6814 16.6604 10.2447 15.8896 10.7858C14.348 11.8679 12.1179 12.875 9.375 12.875C8.33161 12.875 7.36181 12.7292 6.47578 12.4887C6.27591 12.4345 6.15784 12.2285 6.21208 12.0286C6.26632 11.8287 6.47232 11.7107 6.67221 11.7649C7.49833 11.9891 8.4021 12.125 9.375 12.125C11.9298 12.125 14.0123 11.1872 15.4587 10.1719C16.182 9.66425 16.7409 9.14075 17.1153 8.71344C17.3029 8.49931 17.4398 8.31434 17.5272 8.17213C17.5711 8.10079 17.599 8.0459 17.6149 8.00771C17.616 8.00498 17.617 8.00242 17.618 8.00003C17.6135 7.9887 17.6068 7.973 17.5968 7.9525C17.5644 7.88616 17.5109 7.79598 17.4323 7.68459C17.2757 7.46268 17.036 7.17935 16.7161 6.86634C16.077 6.24092 15.1357 5.51455 13.9402 4.93433C13.7538 4.84389 13.6761 4.61955 13.7665 4.43322ZM9.375 6.5C8.54657 6.5 7.875 7.17157 7.875 8C7.875 8.13496 7.89273 8.2652 7.92578 8.38878C7.97929 8.58884 7.86047 8.79443 7.66039 8.84797C7.46032 8.9014 7.25474 8.78262 7.20124 8.58256C7.15144 8.39637 7.125 8.20096 7.125 8C7.125 6.75736 8.13236 5.75 9.375 5.75C9.57596 5.75 9.77137 5.77644 9.95756 5.82624C10.1576 5.87974 10.2764 6.08531 10.223 6.28539C10.1694 6.48547 9.96384 6.60429 9.76378 6.55077C9.6402 6.51773 9.50996 6.5 9.375 6.5ZM11.0896 7.15207C11.2897 7.09856 11.4952 7.21738 11.5488 7.41745C11.5986 7.60367 11.625 7.79904 11.625 8C11.625 9.24265 10.6177 10.25 9.375 10.25C9.17404 10.25 8.97867 10.2236 8.79246 10.1738C8.59238 10.1202 8.47356 9.91465 8.52707 9.71459C8.58057 9.51453 8.78614 9.39575 8.98622 9.44919C9.1098 9.48228 9.24004 9.5 9.375 9.5C10.2035 9.5 10.875 8.82847 10.875 8C10.875 7.86504 10.8573 7.7348 10.8242 7.61122C10.7708 7.41113 10.8895 7.20557 11.0896 7.15207Z" fill="#414042"/>
</svg>
