<svg width="19" height="10" viewBox="0 0 19 10" fill="none" xmlns="http://www.w3.org/2000/svg">
<path fill-rule="evenodd" clip-rule="evenodd" d="M1.13204 5C1.13299 5.0024 1.13402 5.00497 1.13516 5.00772C1.15096 5.0459 1.17887 5.10079 1.22274 5.17213C1.31019 5.31433 1.44708 5.49931 1.63471 5.71344C2.00907 6.14075 2.56801 6.66425 3.29128 7.17191C4.73769 8.18722 6.8202 9.125 9.375 9.125C11.9298 9.125 14.0123 8.18722 15.4587 7.17191C16.182 6.66425 16.7409 6.14075 17.1153 5.71344C17.3029 5.49931 17.4398 5.31433 17.5272 5.17213C17.5711 5.10079 17.599 5.0459 17.6149 5.00772C17.616 5.00497 17.617 5.0024 17.618 5C17.617 4.9976 17.616 4.99503 17.6149 4.99228C17.599 4.9541 17.5711 4.89921 17.5272 4.82787C17.4398 4.68567 17.3029 4.50068 17.1153 4.28654C16.7409 3.85928 16.182 3.33577 15.4587 2.82808C14.0123 1.81278 11.9298 0.875 9.375 0.875C6.8202 0.875 4.73769 1.81278 3.29128 2.82808C2.56801 3.33577 2.00907 3.85928 1.63471 4.28654C1.44708 4.50068 1.31019 4.68567 1.22274 4.82787C1.17887 4.89921 1.15096 4.9541 1.13516 4.99228C1.13402 4.99503 1.13299 4.9976 1.13204 5ZM2.86039 2.21421C4.40202 1.13207 6.63202 0.125 9.375 0.125C12.1179 0.125 14.348 1.13207 15.8896 2.21421C16.6604 2.75523 17.2643 3.31858 17.6794 3.79228C17.8865 4.02863 18.0509 4.24766 18.1661 4.43498C18.2236 4.5284 18.2723 4.61967 18.3079 4.7055C18.3403 4.78404 18.375 4.88884 18.375 5C18.375 5.11116 18.3403 5.21596 18.3079 5.2945C18.2723 5.38034 18.2236 5.47156 18.1661 5.56503C18.0509 5.75234 17.8865 5.97134 17.6794 6.20769C17.2643 6.68141 16.6604 7.24475 15.8896 7.78578C14.348 8.86794 12.1179 9.875 9.375 9.875C6.63202 9.875 4.40202 8.86794 2.86039 7.78578C2.08963 7.24475 1.48565 6.68141 1.07061 6.20769C0.863526 5.97134 0.699084 5.75234 0.583883 5.56503C0.526435 5.47156 0.47768 5.38034 0.442158 5.2945C0.409656 5.21596 0.375 5.11116 0.375 5C0.375 4.88884 0.409656 4.78404 0.442158 4.7055C0.47768 4.61967 0.526435 4.5284 0.583883 4.43498C0.699084 4.24766 0.863526 4.02863 1.07061 3.79228C1.48565 3.31858 2.08963 2.75523 2.86039 2.21421ZM9.375 3.5C8.54657 3.5 7.875 4.17157 7.875 5C7.875 5.82847 8.54657 6.5 9.375 6.5C10.2035 6.5 10.875 5.82847 10.875 5C10.875 4.17157 10.2035 3.5 9.375 3.5ZM7.125 5C7.125 3.75736 8.13236 2.75 9.375 2.75C10.6177 2.75 11.625 3.75736 11.625 5C11.625 6.24266 10.6177 7.25 9.375 7.25C8.13236 7.25 7.125 6.24266 7.125 5Z" fill="#414042"/>
</svg>
